<svg width="25" height="22" viewBox="0 0 25 22" fill="none" xmlns="http://www.w3.org/2000/svg">
<g clip-path="url(#clip0_531_3774)">
<path d="M7.16867 22C6.27048 22.0094 5.38033 21.83 4.55585 21.4736C3.73136 21.1171 2.99092 20.5915 2.38244 19.9308C1.13852 18.5297 0.46668 16.7123 0.500221 14.839V7.16098C0.46668 5.2877 1.13852 3.47026 2.38244 2.06921C2.99092 1.40846 3.73136 0.882844 4.55585 0.526395C5.38033 0.169947 6.27048 -0.00939352 7.16867 -1.65945e-05H18.253C19.1675 0.0134323 20.0699 0.21148 20.906 0.582243C21.742 0.953006 22.4946 1.48884 23.1185 2.15761C23.7424 2.82637 24.2248 3.61428 24.5367 4.47405C24.8486 5.33382 24.9836 6.24775 24.9337 7.16098V14.784C24.9866 15.7035 24.8542 16.6243 24.5443 17.4917C24.2344 18.359 23.7534 19.1552 23.1297 19.833C22.5038 20.5062 21.7478 21.0453 20.9074 21.4178C20.0671 21.7903 19.1599 21.9883 18.2408 22H7.16867ZM2.35433 7.16098V14.839C2.30094 15.5074 2.3852 16.1797 2.60191 16.8142C2.81863 17.4488 3.16318 18.0321 3.61428 18.5283C4.06539 19.0244 4.61345 19.4227 5.22459 19.6986C5.83574 19.9745 6.49698 20.1222 7.16744 20.1324H18.231C18.8961 20.123 19.5524 19.9788 20.1602 19.7084C20.768 19.438 21.3146 19.0472 21.7669 18.5594C22.2259 18.0604 22.5787 17.4733 22.8037 16.8337C23.0287 16.1941 23.1213 15.5155 23.0759 14.839V7.10598C23.1145 6.43818 23.0184 5.76943 22.7933 5.13952C22.5683 4.50961 22.2188 3.93141 21.7657 3.43932C21.3132 2.95143 20.7664 2.56046 20.1584 2.29008C19.5504 2.0197 18.8939 1.87554 18.2286 1.86632H7.16867C6.49799 1.87638 5.8365 2.02393 5.22512 2.29985C4.61375 2.57577 4.06548 2.97418 3.61423 3.47046C3.16297 3.96673 2.81834 4.55031 2.60163 5.18509C2.38493 5.81988 2.30076 6.49237 2.35433 7.16098V7.16098ZM10.7449 12.3909L10.5481 12.2467L5.49422 8.21332C5.30168 8.05813 5.17805 7.83332 5.15014 7.5876C5.12222 7.34188 5.19228 7.09507 5.34511 6.90065C5.48246 6.72556 5.67845 6.60601 5.89699 6.56401C6.11552 6.52201 6.34187 6.5604 6.53433 6.67209L6.64922 6.74909L11.6958 10.7824C11.9675 10.9967 12.2988 11.1221 12.6443 11.1413C12.9899 11.1606 13.333 11.0728 13.6269 10.89L13.7711 10.7898L18.7822 6.75643C18.877 6.67974 18.9861 6.62263 19.1031 6.5884C19.2202 6.55418 19.3429 6.54352 19.464 6.55705C19.5852 6.57058 19.7025 6.60802 19.8091 6.66721C19.9157 6.7264 20.0096 6.80616 20.0851 6.90187C20.225 7.07719 20.2975 7.29675 20.2897 7.52089C20.2819 7.74503 20.1941 7.95898 20.0423 8.12409L19.9409 8.21698L14.9224 12.2503C14.3317 12.7143 13.6085 12.978 12.8577 13.003C12.1069 13.0281 11.3677 12.8132 10.7473 12.3897L10.7449 12.3909Z" fill="#7DBFFB"/>
</g>
<defs>
<clipPath id="clip0_531_3774">
<rect width="24.4444" height="22" fill="white" transform="translate(0.5)"/>
</clipPath>
</defs>
</svg>
