<svg width="23" height="22" viewBox="0 0 23 22" fill="none" xmlns="http://www.w3.org/2000/svg">
<g clip-path="url(#clip0_531_3778)">
<path d="M17.4666 22C16.595 21.9754 15.7392 21.7614 14.9586 21.373C11.9827 19.8995 9.29102 17.9112 7.00775 15.5001C4.58483 13.2385 2.59757 10.5514 1.14475 7.5724L1.03475 7.3095C0.284552 5.5297 0.326352 4.0568 1.15245 2.9348C1.87515 1.738 3.86505 0 5.33905 0H5.42155H5.45455C6.04198 0.0699886 6.58486 0.348255 6.98465 0.7843C8.13333 1.96742 9.10045 3.31413 9.85455 4.7806C9.92139 5.14697 9.91079 5.52328 9.82346 5.88531C9.73612 6.24735 9.57398 6.5871 9.34745 6.8827L9.22645 7.0961C9.00645 7.502 8.96135 7.678 9.03395 7.8815C9.52609 9.14369 10.2739 10.2905 11.2304 11.2498C12.187 12.2092 13.3315 12.9604 14.5923 13.4563C14.6586 13.4817 14.729 13.4952 14.8002 13.4959C15.0726 13.4594 15.3316 13.3554 15.5536 13.1934L15.8265 13.0383C16.2406 12.7683 16.7196 12.6145 17.2136 12.5928C17.3845 12.5943 17.5548 12.6135 17.7218 12.65C19.1878 13.4055 20.5338 14.3741 21.7159 15.5243C22.1622 15.9332 22.4428 16.4918 22.5045 17.094C22.5551 18.5427 20.7929 20.6558 19.6248 21.3202C18.9962 21.771 18.24 22.0091 17.4666 22ZM5.31925 1.6082H5.33355H5.23675C4.11608 2.04756 3.15653 2.81904 2.48675 3.8192L2.40095 3.9468C2.18792 4.42305 2.0965 4.94475 2.1349 5.46505C2.1733 5.98536 2.34031 6.48799 2.62095 6.9278L2.73095 7.1962C4.15347 9.93354 6.03541 12.4063 8.29475 14.5068C10.4 16.7121 12.8716 18.5358 15.5998 19.8968L15.8331 20.0002C16.3343 20.232 16.8771 20.3607 17.4291 20.3786C17.9022 20.3855 18.365 20.2401 18.7492 19.9639L18.8041 19.9287C19.2354 19.5919 19.6326 19.2135 19.99 18.799C20.4457 18.3635 20.7597 17.8008 20.8909 17.1842C20.8409 16.9734 20.7254 16.7839 20.5609 16.643C19.5806 15.7403 18.519 14.9301 17.3896 14.223C17.3444 14.2131 17.2983 14.2079 17.2521 14.2076C16.9493 14.2497 16.6619 14.3669 16.4161 14.5486L16.1455 14.7004C15.745 14.9491 15.2875 15.0911 14.8167 15.1129C14.54 15.1084 14.2663 15.0551 14.0082 14.9556C12.5403 14.3769 11.2078 13.5011 10.0944 12.3832C8.98102 11.2652 8.11066 9.92921 7.53795 8.459C7.40405 8.07272 7.36872 7.65911 7.43519 7.25571C7.50165 6.85232 7.6678 6.47191 7.91855 6.149L8.04175 5.929C8.27385 5.5088 8.32775 5.3251 8.28375 5.1084C7.57626 3.97849 6.76617 2.91617 5.86375 1.9349C5.7213 1.77124 5.5307 1.65687 5.31925 1.6082Z" fill="#7DBFFB"/>
</g>
<defs>
<clipPath id="clip0_531_3778">
<rect width="22.0044" height="22" fill="white" transform="translate(0.5)"/>
</clipPath>
</defs>
</svg>
