<svg width="60" height="57" viewBox="0 0 60 57" fill="none" xmlns="http://www.w3.org/2000/svg">
<g filter="url(#filter0_f_424_3717)">
<rect x="10.3096" y="8.66385" width="48.2378" height="47.3362" rx="6" fill="#7DBFFB"/>
</g>
<g filter="url(#filter1_d_424_3717)">
<rect x="4" y="1" width="48.2378" height="48.2378" rx="6" fill="#14186A"/>
</g>
<path d="M19.3312 35.3748C21.7233 35.3748 23.6625 33.4357 23.6625 31.0436C23.6625 28.6515 21.7233 26.7124 19.3312 26.7124C16.9392 26.7124 15 28.6515 15 31.0436C15 33.4357 16.9392 35.3748 19.3312 35.3748Z" stroke="white" stroke-width="2.5" stroke-linecap="round" stroke-linejoin="round"/>
<path d="M35.4191 35.3748C37.8112 35.3748 39.7504 33.4357 39.7504 31.0436C39.7504 28.6515 37.8112 26.7124 35.4191 26.7124C33.027 26.7124 31.0879 28.6515 31.0879 31.0436C31.0879 33.4357 33.027 35.3748 35.4191 35.3748Z" stroke="white" stroke-width="2.5" stroke-linecap="round" stroke-linejoin="round"/>
<path d="M27.3746 31.0436V26.7124L23.6621 22.9999L28.6121 19.2874L31.0871 22.9999H33.5621M31.0871 16.8124C31.4153 16.8124 31.73 16.6821 31.9621 16.45C32.1942 16.2179 32.3246 15.9031 32.3246 15.5749C32.3246 15.2467 32.1942 14.932 31.9621 14.6999C31.73 14.4678 31.4153 14.3374 31.0871 14.3374C30.7589 14.3374 30.4441 14.4678 30.212 14.6999C29.98 14.932 29.8496 15.2467 29.8496 15.5749C29.8496 15.9031 29.98 16.2179 30.212 16.45C30.4441 16.6821 30.7589 16.8124 31.0871 16.8124V16.8124Z" stroke="white" stroke-width="2.5" stroke-linecap="round" stroke-linejoin="round"/>
<defs>
<filter id="filter0_f_424_3717" x="9.30957" y="7.66385" width="50.2383" height="49.3362" filterUnits="userSpaceOnUse" color-interpolation-filters="sRGB">
<feFlood flood-opacity="0" result="BackgroundImageFix"/>
<feBlend mode="normal" in="SourceGraphic" in2="BackgroundImageFix" result="shape"/>
<feGaussianBlur stdDeviation="0.5" result="effect1_foregroundBlur_424_3717"/>
</filter>
<filter id="filter1_d_424_3717" x="0" y="0" width="56.2383" height="56.2378" filterUnits="userSpaceOnUse" color-interpolation-filters="sRGB">
<feFlood flood-opacity="0" result="BackgroundImageFix"/>
<feColorMatrix in="SourceAlpha" type="matrix" values="0 0 0 0 0 0 0 0 0 0 0 0 0 0 0 0 0 0 127 0" result="hardAlpha"/>
<feOffset dy="3"/>
<feGaussianBlur stdDeviation="2"/>
<feComposite in2="hardAlpha" operator="out"/>
<feColorMatrix type="matrix" values="0 0 0 0 0.27943 0 0 0 0 0.1375 0 0 0 0 1 0 0 0 0.18 0"/>
<feBlend mode="normal" in2="BackgroundImageFix" result="effect1_dropShadow_424_3717"/>
<feBlend mode="normal" in="SourceGraphic" in2="effect1_dropShadow_424_3717" result="shape"/>
</filter>
</defs>
</svg>
