<svg width="60" height="57" viewBox="0 0 60 57" fill="none" xmlns="http://www.w3.org/2000/svg">
<g filter="url(#filter0_f_424_3741)">
<rect x="10.3096" y="8.66385" width="48.2378" height="47.3362" rx="6" fill="#7DBFFB"/>
</g>
<g filter="url(#filter1_d_424_3741)">
<rect x="4" y="1" width="48.2378" height="48.2378" rx="6" fill="#14186A"/>
</g>
<g clip-path="url(#clip0_424_3741)">
<path d="M32.4453 16.3859C32.7863 16.3859 33.1134 16.5214 33.3546 16.7625C33.5957 17.0037 33.7312 17.3308 33.7312 17.6718V35.203C33.7312 35.544 33.5957 35.8711 33.3546 36.1123C33.1134 36.3534 32.7863 36.4889 32.4453 36.4889H23.6797C23.3386 36.4889 23.0115 36.3534 22.7704 36.1123C22.5292 35.8711 22.3937 35.544 22.3937 35.203V17.6718C22.3937 17.3308 22.5292 17.0037 22.7704 16.7625C23.0115 16.5214 23.3386 16.3859 23.6797 16.3859H32.4453ZM23.6797 14.5749C22.8583 14.5749 22.0706 14.9012 21.4899 15.482C20.9091 16.0628 20.5828 16.8505 20.5828 17.6718V35.203C20.5828 36.0243 20.9091 36.812 21.4899 37.3928C22.0706 37.9736 22.8583 38.2998 23.6797 38.2998H32.4453C33.2666 38.2998 34.0543 37.9736 34.6351 37.3928C35.2158 36.812 35.5421 36.0243 35.5421 35.203V17.6718C35.5421 16.8505 35.2158 16.0628 34.6351 15.482C34.0543 14.9012 33.2666 14.5749 32.4453 14.5749H23.6797Z" fill="white" stroke="white" stroke-width="0.35"/>
<path d="M28.0625 35.378C28.4964 35.378 28.9125 35.2056 29.2193 34.8988C29.5261 34.592 29.6984 34.1759 29.6984 33.742C29.6984 33.3082 29.5261 32.8921 29.2193 32.5853C28.9125 32.2785 28.4964 32.1061 28.0625 32.1061C27.6286 32.1061 27.2125 32.2785 26.9057 32.5853C26.5989 32.8921 26.4266 33.3082 26.4266 33.742C26.4266 34.1759 26.5989 34.592 26.9057 34.8988C27.2125 35.2056 27.6286 35.378 28.0625 35.378Z" fill="white" stroke="white" stroke-width="0.35"/>
</g>
<defs>
<filter id="filter0_f_424_3741" x="9.30957" y="7.66385" width="50.2383" height="49.3362" filterUnits="userSpaceOnUse" color-interpolation-filters="sRGB">
<feFlood flood-opacity="0" result="BackgroundImageFix"/>
<feBlend mode="normal" in="SourceGraphic" in2="BackgroundImageFix" result="shape"/>
<feGaussianBlur stdDeviation="0.5" result="effect1_foregroundBlur_424_3741"/>
</filter>
<filter id="filter1_d_424_3741" x="0" y="0" width="56.2383" height="56.2378" filterUnits="userSpaceOnUse" color-interpolation-filters="sRGB">
<feFlood flood-opacity="0" result="BackgroundImageFix"/>
<feColorMatrix in="SourceAlpha" type="matrix" values="0 0 0 0 0 0 0 0 0 0 0 0 0 0 0 0 0 0 127 0" result="hardAlpha"/>
<feOffset dy="3"/>
<feGaussianBlur stdDeviation="2"/>
<feComposite in2="hardAlpha" operator="out"/>
<feColorMatrix type="matrix" values="0 0 0 0 0.27943 0 0 0 0 0.1375 0 0 0 0 1 0 0 0 0.18 0"/>
<feBlend mode="normal" in2="BackgroundImageFix" result="effect1_dropShadow_424_3741"/>
<feBlend mode="normal" in="SourceGraphic" in2="effect1_dropShadow_424_3741" result="shape"/>
</filter>
<clipPath id="clip0_424_3741">
<rect width="23.3749" height="23.3749" fill="white" transform="translate(16.375 14.7499)"/>
</clipPath>
</defs>
</svg>
