<svg width="23" height="22" viewBox="0 0 23 22" fill="none" xmlns="http://www.w3.org/2000/svg">
<path d="M17.4664 22C16.5948 21.9754 15.739 21.7614 14.9584 21.373C11.9826 19.8995 9.29084 17.9112 7.00757 15.5001C4.58464 13.2385 2.59739 10.5514 1.14457 7.5724L1.03457 7.3095C0.284369 5.5297 0.326169 4.0568 1.15227 2.9348C1.87497 1.738 3.86487 0 5.33887 0H5.42137H5.45437C6.0418 0.0699886 6.58467 0.348255 6.98447 0.7843C8.13314 1.96742 9.10027 3.31413 9.85437 4.7806C9.9212 5.14697 9.91061 5.52328 9.82328 5.88531C9.73594 6.24735 9.57379 6.5871 9.34727 6.8827L9.22627 7.0961C9.00627 7.502 8.96117 7.678 9.03377 7.8815C9.5259 9.14369 10.2737 10.2905 11.2302 11.2498C12.1868 12.2092 13.3313 12.9604 14.5921 13.4563C14.6585 13.4817 14.7289 13.4952 14.8 13.4959C15.0724 13.4594 15.3314 13.3554 15.5535 13.1934L15.8263 13.0383C16.2404 12.7683 16.7195 12.6145 17.2134 12.5928C17.3843 12.5943 17.5546 12.6135 17.7216 12.65C19.1876 13.4055 20.5336 14.3741 21.7157 15.5243C22.162 15.9332 22.4426 16.4918 22.5044 17.094C22.555 18.5427 20.7928 20.6558 19.6246 21.3202C18.996 21.771 18.2398 22.0091 17.4664 22ZM5.31907 1.6082H5.33337H5.23657C4.1159 2.04756 3.15635 2.81904 2.48657 3.8192L2.40077 3.9468C2.18774 4.42305 2.09632 4.94475 2.13472 5.46505C2.17312 5.98536 2.34013 6.48799 2.62077 6.9278L2.73077 7.1962C4.15329 9.93354 6.03522 12.4063 8.29457 14.5068C10.3998 16.7121 12.8714 18.5358 15.5997 19.8968L15.8329 20.0002C16.3342 20.232 16.877 20.3607 17.429 20.3786C17.902 20.3855 18.3648 20.2401 18.749 19.9639L18.804 19.9287C19.2353 19.5919 19.6324 19.2135 19.9898 18.799C20.4455 18.3635 20.7595 17.8008 20.8907 17.1842C20.8407 16.9734 20.7252 16.7839 20.5607 16.643C19.5805 15.7403 18.5188 14.9301 17.3894 14.223C17.3442 14.2131 17.2981 14.2079 17.2519 14.2076C16.9491 14.2497 16.6617 14.3669 16.4159 14.5486L16.1453 14.7004C15.7448 14.9491 15.2874 15.0911 14.8165 15.1129C14.5398 15.1084 14.2661 15.0551 14.008 14.9556C12.5401 14.3769 11.2077 13.5011 10.0943 12.3832C8.98084 11.2652 8.11048 9.92921 7.53777 8.459C7.40386 8.07272 7.36854 7.65911 7.43501 7.25571C7.50147 6.85232 7.66762 6.47191 7.91837 6.149L8.04157 5.929C8.27367 5.5088 8.32757 5.3251 8.28357 5.1084C7.57608 3.97849 6.76599 2.91617 5.86357 1.9349C5.72112 1.77124 5.53051 1.65687 5.31907 1.6082Z" fill="#7DBFFB"/>
</svg>
