<svg width="60" height="57" viewBox="0 0 60 57" fill="none" xmlns="http://www.w3.org/2000/svg">
<g filter="url(#filter0_f_395_4235)">
<rect x="10.3096" y="8.66382" width="48.2378" height="47.3362" rx="6" fill="#7DBFFB"/>
</g>
<g filter="url(#filter1_d_395_4235)">
<rect x="4" y="1" width="48.2378" height="48.2378" rx="6" fill="#14186A"/>
</g>
<g clip-path="url(#clip0_395_4235)">
<path d="M36.6573 24.0815C36.864 23.9275 37.0173 23.7127 37.0957 23.4672C37.1742 23.2217 37.1738 22.9578 37.0947 22.7125C37.0156 22.4672 36.8617 22.2528 36.6546 22.0994C36.4475 21.946 36.1976 21.8612 35.9399 21.857L30.9349 21.6679C30.9103 21.6662 30.8867 21.6575 30.867 21.6427C30.8473 21.6279 30.8322 21.6077 30.8237 21.5845L29.0942 16.9132C29.0073 16.6756 28.8495 16.4703 28.6421 16.3253C28.4347 16.1804 28.1878 16.1026 27.9347 16.1026C27.6817 16.1026 27.4347 16.1804 27.2274 16.3253C27.02 16.4703 26.8621 16.6756 26.7752 16.9132L25.0513 21.6012C25.0428 21.6244 25.0277 21.6445 25.008 21.6593C24.9883 21.6741 24.9647 21.6829 24.9401 21.6846L19.9351 21.8737C19.6774 21.8779 19.4275 21.9627 19.2204 22.1161C19.0133 22.2695 18.8594 22.4839 18.7803 22.7292C18.7012 22.9745 18.7008 23.2384 18.7793 23.4839C18.8577 23.7294 19.011 23.9442 19.2177 24.0981L23.1439 27.1845C23.1635 27.2 23.1782 27.2209 23.1861 27.2446C23.194 27.2683 23.1948 27.2938 23.1883 27.318L21.837 32.1061C21.767 32.3499 21.7738 32.6094 21.8564 32.8492C21.9391 33.0891 22.0936 33.2976 22.299 33.4465C22.5044 33.5954 22.7507 33.6774 23.0044 33.6813C23.258 33.6853 23.5067 33.611 23.7166 33.4686L27.8652 30.688C27.8856 30.6739 27.9099 30.6664 27.9347 30.6664C27.9596 30.6664 27.9838 30.6739 28.0042 30.688L32.1528 33.4686C32.3599 33.6158 32.6077 33.695 32.8618 33.695C33.116 33.695 33.3638 33.6158 33.5709 33.4686C33.7763 33.3211 33.931 33.1136 34.0137 32.8746C34.0963 32.6355 34.1029 32.3768 34.0325 32.1339L32.67 27.3291C32.6628 27.305 32.6632 27.2792 32.6711 27.2554C32.6791 27.2315 32.6942 27.2106 32.7145 27.1957L36.6573 24.0815Z" fill="white"/>
</g>
<defs>
<filter id="filter0_f_395_4235" x="9.30957" y="7.66382" width="50.2383" height="49.3362" filterUnits="userSpaceOnUse" color-interpolation-filters="sRGB">
<feFlood flood-opacity="0" result="BackgroundImageFix"/>
<feBlend mode="normal" in="SourceGraphic" in2="BackgroundImageFix" result="shape"/>
<feGaussianBlur stdDeviation="0.5" result="effect1_foregroundBlur_395_4235"/>
</filter>
<filter id="filter1_d_395_4235" x="0" y="0" width="56.2383" height="56.2378" filterUnits="userSpaceOnUse" color-interpolation-filters="sRGB">
<feFlood flood-opacity="0" result="BackgroundImageFix"/>
<feColorMatrix in="SourceAlpha" type="matrix" values="0 0 0 0 0 0 0 0 0 0 0 0 0 0 0 0 0 0 127 0" result="hardAlpha"/>
<feOffset dy="3"/>
<feGaussianBlur stdDeviation="2"/>
<feComposite in2="hardAlpha" operator="out"/>
<feColorMatrix type="matrix" values="0 0 0 0 0.27943 0 0 0 0 0.1375 0 0 0 0 1 0 0 0 0.18 0"/>
<feBlend mode="normal" in2="BackgroundImageFix" result="effect1_dropShadow_395_4235"/>
<feBlend mode="normal" in="SourceGraphic" in2="effect1_dropShadow_395_4235" result="shape"/>
</filter>
<clipPath id="clip0_395_4235">
<rect width="20.0199" height="20.0199" fill="white" transform="translate(17.75 14.7499)"/>
</clipPath>
</defs>
</svg>
