<svg width="22" height="22" viewBox="0 0 22 22" fill="none" xmlns="http://www.w3.org/2000/svg">
<path d="M17.3097 22.0022H15.1205C14.6194 21.9947 14.1392 21.7998 13.7747 21.4559C13.4102 21.1119 13.1878 20.6439 13.1513 20.1441L13.1403 19.9901V16.8416C13.1387 16.6757 13.078 16.5157 12.9691 16.3905C12.8603 16.2653 12.7103 16.183 12.5462 16.1584L12.4472 16.1474H9.5088C9.34326 16.1495 9.18385 16.2104 9.0591 16.3192C8.93434 16.4281 8.85237 16.5777 8.82783 16.7415L8.81683 16.8416V19.9769C8.81511 20.043 8.80775 20.1089 8.79483 20.1738L8.78383 20.1969L8.77063 20.2728C8.70755 20.7297 8.48799 21.1506 8.14938 21.4637C7.81076 21.7768 7.37405 21.9629 6.91364 21.9901L6.77063 22.0022H4.80143C3.69962 22.0035 2.63929 21.5821 1.839 20.8248C1.0387 20.0675 0.559442 19.032 0.5 17.9318L0.5 8.78878C0.50566 8.33292 0.606433 7.88326 0.795868 7.46859C0.985304 7.05392 1.25923 6.68336 1.60011 6.38064L8.4538 0.866887C9.13114 0.328488 9.96491 0.024444 10.8298 0.000440367C11.6948 -0.0235632 12.5441 0.23377 13.2503 0.733774L13.4274 0.866887L20.1249 6.22552C20.4865 6.50709 20.7857 6.86062 21.0037 7.26377C21.2216 7.66692 21.3535 8.11091 21.3911 8.56766L21.4021 8.78768V17.7118C21.399 18.8149 20.9728 19.8748 20.2114 20.673C19.45 21.4713 18.4114 21.947 17.3097 22.0022ZM9.34488 14.6205H12.4472C13.008 14.623 13.5475 14.8359 13.959 15.217C14.3705 15.5981 14.624 16.1198 14.6694 16.6788V19.9901C14.669 20.1012 14.7072 20.209 14.7774 20.295C14.8476 20.3811 14.9456 20.4401 15.0545 20.462H17.0996C17.8007 20.4644 18.4765 20.1995 18.9892 19.7213C19.502 19.2431 19.8133 18.5874 19.8597 17.8878L19.8729 17.7129V8.80088C19.8606 8.33052 19.6629 7.88408 19.3229 7.55886L19.1799 7.43674L12.4692 2.06821C12.0342 1.72239 11.4946 1.53464 10.9389 1.53575C10.4505 1.53442 9.97259 1.67715 9.56491 1.94609L9.39879 2.06821L2.71012 7.45875C2.52562 7.59743 2.37113 7.77207 2.25598 7.97212C2.14083 8.17216 2.06741 8.39346 2.04015 8.62266L2.02805 8.80088V17.7118C2.02988 18.4146 2.29953 19.0903 2.78209 19.6013C3.26466 20.1122 3.92384 20.4201 4.62541 20.462H6.77063C6.88529 20.4665 6.99765 20.429 7.08658 20.3565C7.17551 20.2839 7.2349 20.1814 7.25358 20.0682L7.27668 19.8702L7.28878 19.8141V16.8438C7.28402 16.2809 7.49403 15.7373 7.87605 15.3238C8.25806 14.9103 8.78334 14.658 9.34488 14.6183V14.6205Z" fill="#7DBFFB"/>
</svg>
