<svg width="60" height="57" viewBox="0 0 60 57" fill="none" xmlns="http://www.w3.org/2000/svg">
<g filter="url(#filter0_f_395_4253)">
<rect x="10.3096" y="8.66382" width="48.2378" height="47.3362" rx="6" fill="#7DBFFB"/>
</g>
<g filter="url(#filter1_d_395_4253)">
<rect x="4" y="1" width="48.2378" height="48.2378" rx="6" fill="#14186A"/>
</g>
<path d="M28.447 33.064C32.0092 31.5664 34.5873 29.0097 35.978 26.4209C37.3473 23.8428 37.5398 21.2754 36.3203 19.735C35.2185 18.355 33.785 17.8308 32.3302 17.8736C30.8753 17.9164 29.4633 18.5476 28.447 19.4355C27.4307 18.5476 26.0187 17.9164 24.5638 17.8736C23.109 17.8308 21.6755 18.355 20.5737 19.735C19.3542 21.2754 19.5467 23.8428 20.9374 26.4209C22.3067 29.0097 24.8847 31.5664 28.447 33.064Z" fill="white"/>
<defs>
<filter id="filter0_f_395_4253" x="9.30957" y="7.66382" width="50.2383" height="49.3362" filterUnits="userSpaceOnUse" color-interpolation-filters="sRGB">
<feFlood flood-opacity="0" result="BackgroundImageFix"/>
<feBlend mode="normal" in="SourceGraphic" in2="BackgroundImageFix" result="shape"/>
<feGaussianBlur stdDeviation="0.5" result="effect1_foregroundBlur_395_4253"/>
</filter>
<filter id="filter1_d_395_4253" x="0" y="0" width="56.2383" height="56.2378" filterUnits="userSpaceOnUse" color-interpolation-filters="sRGB">
<feFlood flood-opacity="0" result="BackgroundImageFix"/>
<feColorMatrix in="SourceAlpha" type="matrix" values="0 0 0 0 0 0 0 0 0 0 0 0 0 0 0 0 0 0 127 0" result="hardAlpha"/>
<feOffset dy="3"/>
<feGaussianBlur stdDeviation="2"/>
<feComposite in2="hardAlpha" operator="out"/>
<feColorMatrix type="matrix" values="0 0 0 0 0.27943 0 0 0 0 0.1375 0 0 0 0 1 0 0 0 0.18 0"/>
<feBlend mode="normal" in2="BackgroundImageFix" result="effect1_dropShadow_395_4253"/>
<feBlend mode="normal" in="SourceGraphic" in2="effect1_dropShadow_395_4253" result="shape"/>
</filter>
</defs>
</svg>
