<svg width="60" height="57" viewBox="0 0 60 57" fill="none" xmlns="http://www.w3.org/2000/svg">
<g filter="url(#filter0_f_424_3762)">
<rect x="10.3096" y="8.66385" width="48.2378" height="47.3362" rx="6" fill="#7DBFFB"/>
</g>
<g filter="url(#filter1_d_424_3762)">
<rect x="4" y="1" width="48.2378" height="48.2378" rx="6" fill="#14186A"/>
</g>
<path d="M37.8523 25.9849H36.6071C36.4264 25.9849 36.2792 26.1321 36.2792 26.3128V33.2784H21.9922V18.9914H28.9578C29.1385 18.9914 29.2857 18.8442 29.2857 18.6636V17.4183C29.2857 17.2376 29.1385 17.0904 28.9578 17.0904H20.9528C20.4763 17.0904 20.0912 17.4756 20.0912 17.952V34.3179C20.0912 34.7943 20.4763 35.1794 20.9528 35.1794H37.3186C37.7951 35.1794 38.1802 34.7943 38.1802 34.3179V26.3128C38.1802 26.1321 38.033 25.9849 37.8523 25.9849Z" fill="white" stroke="white" stroke-width="0.3"/>
<path d="M25.5144 26.6417L25.5144 26.6416C25.5157 26.5574 25.5489 26.4768 25.6071 26.4159L25.6095 26.4134L25.6095 26.4134L34.8553 17.1854L34.8587 17.1821L34.8587 17.1821C34.9211 17.1236 35.0019 17.0904 35.0881 17.0904C35.1698 17.0904 35.254 17.1186 35.3208 17.1854C35.3208 17.1854 35.3209 17.1855 35.3209 17.1855L38.0848 19.9472L38.0848 19.9472C38.2123 20.0747 38.2123 20.2831 38.0848 20.4106L38.0847 20.4107L28.8368 29.6386L25.5144 26.6417ZM25.5144 26.6417L25.4721 29.2856L25.4721 29.2863M25.5144 26.6417L25.4721 29.2863M25.4721 29.2863C25.4689 29.5675 25.6962 29.7982 25.9779 29.7982H25.9868V29.7983M25.4721 29.2863L25.9868 29.7983M25.9868 29.7983L25.9905 29.7982M25.9868 29.7983L25.9905 29.7982M25.9905 29.7982L28.6143 29.7337L28.6143 29.7337M25.9905 29.7982L28.6143 29.7337M28.6143 29.7337L28.6181 29.7335M28.6143 29.7337L28.6181 29.7335M28.6181 29.7335C28.6951 29.7297 28.7762 29.6992 28.8367 29.6388L28.6181 29.7335ZM27.2254 27.232L35.0881 19.3868L35.8808 20.1778L28.0134 28.0277L27.2131 28.0469L27.2254 27.232Z" fill="white" stroke="white" stroke-width="0.3"/>
<defs>
<filter id="filter0_f_424_3762" x="9.30957" y="7.66385" width="50.2383" height="49.3362" filterUnits="userSpaceOnUse" color-interpolation-filters="sRGB">
<feFlood flood-opacity="0" result="BackgroundImageFix"/>
<feBlend mode="normal" in="SourceGraphic" in2="BackgroundImageFix" result="shape"/>
<feGaussianBlur stdDeviation="0.5" result="effect1_foregroundBlur_424_3762"/>
</filter>
<filter id="filter1_d_424_3762" x="0" y="0" width="56.2383" height="56.2378" filterUnits="userSpaceOnUse" color-interpolation-filters="sRGB">
<feFlood flood-opacity="0" result="BackgroundImageFix"/>
<feColorMatrix in="SourceAlpha" type="matrix" values="0 0 0 0 0 0 0 0 0 0 0 0 0 0 0 0 0 0 127 0" result="hardAlpha"/>
<feOffset dy="3"/>
<feGaussianBlur stdDeviation="2"/>
<feComposite in2="hardAlpha" operator="out"/>
<feColorMatrix type="matrix" values="0 0 0 0 0.27943 0 0 0 0 0.1375 0 0 0 0 1 0 0 0 0.18 0"/>
<feBlend mode="normal" in2="BackgroundImageFix" result="effect1_dropShadow_424_3762"/>
<feBlend mode="normal" in="SourceGraphic" in2="effect1_dropShadow_424_3762" result="shape"/>
</filter>
</defs>
</svg>
