<svg width="60" height="57" viewBox="0 0 60 57" fill="none" xmlns="http://www.w3.org/2000/svg">
<g filter="url(#filter0_f_395_4199)">
<rect x="10.3096" y="8.66382" width="48.2378" height="47.3362" rx="6" fill="#7DBFFB"/>
</g>
<g filter="url(#filter1_d_395_4199)">
<rect x="4" y="1" width="48.2378" height="48.2378" rx="6" fill="#14186A"/>
</g>
<g clip-path="url(#clip0_395_4199)">
<path d="M29.7303 34.7167C29.3968 34.6654 29.0608 34.6281 28.7312 34.5598C25.8368 33.9605 23.717 32.345 22.3914 29.7C22.1939 29.3071 22.049 28.8882 21.8718 28.461H18.7674C18.7624 28.3864 18.7548 28.3244 18.7548 28.2623C18.7548 27.5783 18.7592 26.8943 18.751 26.2102C18.751 26.0558 18.794 26.0103 18.9484 26.0122C19.6445 26.0198 20.3405 26.0153 21.0404 26.0153H21.2302C21.2062 25.2446 21.1821 24.4884 21.1581 23.7057H18.7662V21.479C18.8383 21.479 18.9073 21.4701 18.9756 21.4701C19.8159 21.4701 20.6569 21.465 21.4972 21.4701C21.6459 21.4701 21.7111 21.429 21.756 21.2866C22.6375 18.5024 24.4941 16.5793 27.1037 15.3562C28.3977 14.7481 29.7898 14.6304 31.2053 14.7278C32.4076 14.8114 33.5536 15.0866 34.6363 15.6137C35.7753 16.1712 36.7339 16.9603 37.573 17.936C36.901 18.777 36.2321 19.6135 35.5335 20.4861C35.4828 20.4126 35.4267 20.3428 35.3658 20.2773C34.9064 19.8641 34.4584 19.4363 33.9794 19.0478C33.3416 18.5327 32.6145 18.2012 31.7862 18.1189C30.9674 18.0379 30.148 17.9829 29.3374 18.1664C27.8301 18.5074 26.7297 19.4079 25.9204 20.6975C25.7938 20.9006 25.6831 21.1138 25.5407 21.3695H31.9596C32.2197 21.3695 32.2197 21.3695 32.2197 21.6365V23.8031H24.9313C24.9509 24.5872 24.8851 25.3522 25.0313 26.1191H32.2026V28.5509H25.7229C25.9469 28.8932 26.1235 29.1938 26.3285 29.4735C27.1416 30.5853 28.23 31.2567 29.5993 31.4269C31.1813 31.623 32.643 31.3066 33.9086 30.2879C34.3945 29.8962 34.8704 29.4918 35.3639 29.0793C36.0161 29.8605 36.6867 30.6633 37.3755 31.4876C37.1857 31.711 37.0009 31.9382 36.8029 32.1495C35.5025 33.5359 33.8997 34.3358 32.0235 34.6015C31.7413 34.642 31.4591 34.6787 31.1769 34.7167H29.7303Z" fill="white"/>
</g>
<defs>
<filter id="filter0_f_395_4199" x="9.30957" y="7.66382" width="50.2383" height="49.3362" filterUnits="userSpaceOnUse" color-interpolation-filters="sRGB">
<feFlood flood-opacity="0" result="BackgroundImageFix"/>
<feBlend mode="normal" in="SourceGraphic" in2="BackgroundImageFix" result="shape"/>
<feGaussianBlur stdDeviation="0.5" result="effect1_foregroundBlur_395_4199"/>
</filter>
<filter id="filter1_d_395_4199" x="0" y="0" width="56.2383" height="56.2378" filterUnits="userSpaceOnUse" color-interpolation-filters="sRGB">
<feFlood flood-opacity="0" result="BackgroundImageFix"/>
<feColorMatrix in="SourceAlpha" type="matrix" values="0 0 0 0 0 0 0 0 0 0 0 0 0 0 0 0 0 0 127 0" result="hardAlpha"/>
<feOffset dy="3"/>
<feGaussianBlur stdDeviation="2"/>
<feComposite in2="hardAlpha" operator="out"/>
<feColorMatrix type="matrix" values="0 0 0 0 0.27943 0 0 0 0 0.1375 0 0 0 0 1 0 0 0 0.18 0"/>
<feBlend mode="normal" in2="BackgroundImageFix" result="effect1_dropShadow_395_4199"/>
<feBlend mode="normal" in="SourceGraphic" in2="effect1_dropShadow_395_4199" result="shape"/>
</filter>
<clipPath id="clip0_395_4199">
<rect width="18.822" height="20.0192" fill="white" transform="translate(18.751 14.6976)"/>
</clipPath>
</defs>
</svg>
