<svg width="25" height="22" viewBox="0 0 25 22" fill="none" xmlns="http://www.w3.org/2000/svg">
<path d="M7.16845 22C6.27026 22.0094 5.38012 21.83 4.55563 21.4736C3.73115 21.1171 2.9907 20.5915 2.38223 19.9308C1.1383 18.5297 0.466467 16.7123 0.500008 14.839V7.16098C0.466467 5.2877 1.1383 3.47026 2.38223 2.06921C2.9907 1.40846 3.73115 0.882844 4.55563 0.526395C5.38012 0.169947 6.27026 -0.00939352 7.16845 -1.65945e-05H18.2528C19.1673 0.0134323 20.0697 0.21148 20.9057 0.582243C21.7418 0.953006 22.4944 1.48884 23.1183 2.15761C23.7422 2.82637 24.2246 3.61427 24.5365 4.47405C24.8484 5.33382 24.9834 6.24775 24.9335 7.16098V14.784C24.9864 15.7035 24.854 16.6243 24.5441 17.4917C24.2342 18.359 23.7531 19.1552 23.1295 19.833C22.5036 20.5062 21.7476 21.0453 20.9072 21.4178C20.0669 21.7903 19.1597 21.9883 18.2406 22H7.16845ZM2.35412 7.16098V14.839C2.30072 15.5074 2.38499 16.1797 2.6017 16.8142C2.81841 17.4488 3.16297 18.0321 3.61407 18.5283C4.06517 19.0244 4.61323 19.4227 5.22438 19.6986C5.83552 19.9746 6.49677 20.1222 7.16723 20.1324H18.2308C18.8959 20.123 19.5522 19.9788 20.16 19.7084C20.7678 19.438 21.3144 19.0472 21.7667 18.5594C22.2257 18.0604 22.5785 17.4733 22.8035 16.8337C23.0285 16.1941 23.1211 15.5155 23.0757 14.839V7.10598C23.1143 6.43818 23.0182 5.76943 22.7931 5.13952C22.568 4.50961 22.2186 3.93141 21.7655 3.43932C21.313 2.95143 20.7662 2.56046 20.1582 2.29008C19.5502 2.0197 18.8937 1.87554 18.2283 1.86632H7.16845C6.49777 1.87638 5.83629 2.02393 5.22491 2.29985C4.61353 2.57577 4.06526 2.97418 3.61401 3.47046C3.16276 3.96673 2.81812 4.55031 2.60142 5.18509C2.38471 5.81988 2.30054 6.49237 2.35412 7.16098ZM10.7447 12.3909L10.5479 12.2467L5.49401 8.21332C5.30146 8.05813 5.17783 7.83332 5.14992 7.5876C5.12201 7.34188 5.19206 7.09507 5.3449 6.90065C5.48225 6.72556 5.67824 6.60601 5.89677 6.56401C6.1153 6.52201 6.34165 6.5604 6.53412 6.67209L6.64901 6.74909L11.6956 10.7824C11.9673 10.9967 12.2986 11.1221 12.6441 11.1413C12.9897 11.1606 13.3328 11.0728 13.6267 10.89L13.7709 10.7898L18.782 6.75643C18.8768 6.67974 18.9859 6.62263 19.1029 6.5884C19.22 6.55418 19.3426 6.54352 19.4638 6.55705C19.585 6.57058 19.7023 6.60802 19.8089 6.66721C19.9155 6.7264 20.0093 6.80616 20.0849 6.90187C20.2248 7.07719 20.2973 7.29675 20.2895 7.52089C20.2816 7.74503 20.1939 7.95898 20.0421 8.12409L19.9407 8.21698L14.9222 12.2503C14.3315 12.7143 13.6082 12.978 12.8575 13.003C12.1067 13.0281 11.3675 12.8132 10.7471 12.3897L10.7447 12.3909Z" fill="#7DBFFB"/>
</svg>
